# xmcd CD database file
#
# Track frame offsets:
#	150
#	12360
#	25668
#	34971
#
# Disc length: 616 seconds
#
# Revision: 0
# Processed by: cddbd v1.5.2PL0 Copyright (c) Steve Scherf et al.
# Submitted via: CDex 1.70beta2
#
DISCID=26026604
DTITLE=Southern Culture On The Skids - Yep Roc Indie-Only Exclusive Bonus Disc
DYEAR=2007
DGENRE=Country
TTITLE0=These Boots Were Made For Walkin'
TTITLE1=Mr Spaceman
TTITLE2=I'll Be Your Mirror
TTITLE3=Monkey See, Monkey Do
EXTD=YEAR: 2007
EXTT0=
EXTT1=
EXTT2=
EXTT3=
PLAYORDER=
